<svg xmlns="http://www.w3.org/2000/svg" viewBox="0 0 526 288" xmlns:xlink="http://www.w3.org/1999/xlink">
  <defs>
    <path id="a" d="M186 1h153v148H186z"/>
    <mask id="b" width="153" height="148" x="0" y="0" fill="#fff">
      <use xlink:href="#a"/>
    </mask>
  </defs>
  <g fill="none" fill-rule="evenodd" transform="translate(-5 -1)">
    <use stroke="#EC3A3E" stroke-width="10" mask="url(#b)" xlink:href="#a"/>
    <path fill="#EC3A3E" d="M197 89v48h129V89h-23s-4.235 12.353-15 20-20.383 9-26.5 9c-6.364 0-16.86-3.223-24.5-9-7.64-5.777-15-20-15-20h-25zm129-23h-22s-7-33-42-33c-34 2-47 32-40 56-3.292-2.263-5.93-4.99-8.028-7.96-8.104-11.466-8.19-26.552-6.972-32.54C213 19 237 13 244 13h82v53z"/>
    <path fill="#444" d="M43.588 173.856V222h-8.5v-40.8H14.144V222h-8.5v-48.144h37.944zM60.26 238.32H52.1v-49.232h7.82v4.76h.204c1.18-1.723 2.765-3.094 4.76-4.114 1.995-1.02 4.193-1.53 6.596-1.53 2.493 0 4.737.453 6.732 1.36s3.695 2.142 5.1 3.706c1.405 1.564 2.493 3.4 3.264 5.508.77 2.108 1.156 4.34 1.156 6.698 0 2.357-.374 4.59-1.122 6.698-.748 2.108-1.825 3.955-3.23 5.542-1.405 1.587-3.117 2.845-5.134 3.774-2.017.93-4.273 1.394-6.766 1.394-2.176 0-4.273-.465-6.29-1.394-2.017-.93-3.615-2.255-4.794-3.978h-.136v20.808zm19.38-32.844c0-1.405-.215-2.754-.646-4.046-.43-1.292-1.054-2.425-1.87-3.4-.816-.975-1.836-1.745-3.06-2.312-1.224-.567-2.652-.85-4.284-.85-1.496 0-2.856.283-4.08.85-1.224.567-2.278 1.337-3.162 2.312-.884.975-1.564 2.108-2.04 3.4-.476 1.292-.714 2.64-.714 4.046 0 1.45.238 2.822.714 4.114.476 1.292 1.156 2.414 2.04 3.366.884.952 1.938 1.71 3.162 2.278 1.224.567 2.584.85 4.08.85 1.632 0 3.06-.283 4.284-.85 1.224-.567 2.244-1.337 3.06-2.312.816-.975 1.44-2.108 1.87-3.4.43-1.292.646-2.64.646-4.046zm48.156 0c0 2.584-.465 4.953-1.394 7.106-.93 2.153-2.2 4-3.808 5.542-1.61 1.54-3.513 2.73-5.712 3.57-2.2.84-4.567 1.258-7.106 1.258-2.54 0-4.896-.42-7.072-1.258-2.176-.84-4.07-2.03-5.678-3.57-1.61-1.54-2.88-3.39-3.808-5.542-.93-2.153-1.394-4.522-1.394-7.106 0-2.584.465-4.94 1.394-7.072.93-2.13 2.2-3.955 3.808-5.474 1.61-1.52 3.502-2.697 5.678-3.536 2.176-.84 4.533-1.258 7.072-1.258 2.54 0 4.907.42 7.106 1.258 2.2.84 4.103 2.017 5.712 3.536 1.61 1.52 2.88 3.343 3.808 5.474.93 2.13 1.394 4.488 1.394 7.072zm-8.092 0c0-1.405-.227-2.754-.68-4.046-.453-1.292-1.1-2.425-1.938-3.4-.84-.975-1.88-1.745-3.128-2.312-1.247-.567-2.64-.85-4.182-.85-1.54 0-2.924.283-4.148.85-1.224.567-2.255 1.337-3.094 2.312-.84.975-1.485 2.108-1.938 3.4-.453 1.292-.68 2.64-.68 4.046 0 1.405.227 2.754.68 4.046.453 1.292 1.1 2.425 1.938 3.4.84.975 1.87 1.745 3.094 2.312 1.224.567 2.607.85 4.148.85 1.54 0 2.935-.283 4.182-.85 1.247-.567 2.29-1.337 3.128-2.312.84-.975 1.485-2.108 1.938-3.4.453-1.292.68-2.64.68-4.046zm21.16-16.388l12.444 14.892 12.24-14.892h7.14V222h-8.16v-21.488l-10.336 13.464h-1.904l-10.404-13.26V222h-8.16v-32.912h7.14zm57.608 1.768l10.812-17h9.996l-15.572 22.78L221.252 222h-10.608L198.2 202.824 186.028 222h-10.336l17.272-25.364-15.776-22.78h10.336l10.948 17zm51.012 8.636l-17 22.508h-8.228v-32.912h8.228v21.964l17-21.964h8.228V222h-8.228v-22.508zm23.132-10.404l12.444 14.892 12.24-14.892h7.14V222h-8.16v-21.488l-10.336 13.464h-1.904l-10.404-13.26V222h-8.16v-32.912h7.14zm53.596 19.652h-16.32v-6.936h16.32v6.936zm47.544 6.12c-1.904 2.448-4.386 4.465-7.446 6.052-3.06 1.587-6.698 2.38-10.914 2.38-3.672 0-7.072-.623-10.2-1.87-3.128-1.247-5.825-2.992-8.092-5.236-2.267-2.244-4.046-4.93-5.338-8.058-1.292-3.128-1.938-6.55-1.938-10.268 0-3.763.657-7.197 1.972-10.302 1.315-3.105 3.117-5.77 5.406-7.99 2.29-2.22 4.998-3.944 8.126-5.168 3.128-1.224 6.505-1.836 10.132-1.836 3.49 0 6.834.646 10.03 1.938 3.196 1.292 5.723 3.094 7.582 5.406l-6.12 5.644c-1.043-1.54-2.56-2.81-4.556-3.808-1.995-.997-4.216-1.496-6.664-1.496-2.54 0-4.828.465-6.868 1.394-2.04.93-3.785 2.187-5.236 3.774-1.45 1.587-2.573 3.445-3.366 5.576-.793 2.13-1.19 4.42-1.19 6.868 0 2.493.397 4.817 1.19 6.97.793 2.153 1.904 4.023 3.332 5.61 1.428 1.587 3.162 2.833 5.202 3.74s4.33 1.36 6.868 1.36c2.493 0 4.783-.51 6.868-1.53s3.785-2.482 5.1-4.386l6.12 5.236zm26.6-26.588c2.493.045 4.794.51 6.902 1.394 2.108.884 3.92 2.108 5.44 3.672 1.52 1.564 2.697 3.39 3.536 5.474.84 2.085 1.258 4.33 1.258 6.732 0 2.448-.42 4.726-1.258 6.834-.84 2.108-2.017 3.92-3.536 5.44-1.52 1.52-3.332 2.72-5.44 3.604-2.108.884-4.41 1.35-6.902 1.394v15.64h-7.616v-15.64c-2.448-.045-4.715-.51-6.8-1.394-2.085-.884-3.887-2.097-5.406-3.638-1.52-1.54-2.72-3.355-3.604-5.44-.884-2.085-1.326-4.352-1.326-6.8 0-2.448.42-4.715 1.258-6.8.84-2.085 2.017-3.887 3.536-5.406 1.52-1.52 3.332-2.73 5.44-3.638 2.108-.907 4.41-1.383 6.902-1.428v-17.68h7.616v17.68zm9.316 17.272c0-1.45-.193-2.822-.578-4.114-.385-1.292-.975-2.414-1.768-3.366s-1.768-1.723-2.924-2.312c-1.156-.59-2.505-.907-4.046-.952v21.556c1.54-.045 2.89-.35 4.046-.918 1.156-.567 2.13-1.326 2.924-2.278.793-.952 1.383-2.085 1.768-3.4s.578-2.72.578-4.216zm-26.18 0c0 1.496.193 2.9.578 4.216.385 1.315.975 2.448 1.768 3.4s1.768 1.71 2.924 2.278c1.156.567 2.482.873 3.978.918V194.8c-1.54.045-2.89.35-4.046.918-1.156.567-2.12 1.337-2.89 2.312-.77.975-1.35 2.097-1.734 3.366-.385 1.27-.578 2.652-.578 4.148zm63.864-3.196c-.045-2.357-.782-4.33-2.21-5.916-1.428-1.587-3.502-2.38-6.222-2.38-1.315 0-2.516.227-3.604.68-1.088.453-2.04 1.054-2.856 1.802-.816.748-1.462 1.632-1.938 2.652-.476 1.02-.76 2.074-.85 3.162h17.68zm7.752 2.992v1.156c0 .408-.023.816-.068 1.224h-25.432c.045 1.224.34 2.38.884 3.468s1.258 2.017 2.142 2.788c.884.77 1.893 1.383 3.026 1.836 1.133.453 2.357.68 3.672.68 2.04 0 3.808-.43 5.304-1.292 1.496-.86 2.652-1.904 3.468-3.128l5.78 3.876c-1.723 2.357-3.82 4.114-6.29 5.27-2.47 1.156-5.247 1.734-8.33 1.734-2.448 0-4.75-.408-6.902-1.224-2.153-.816-4.023-1.972-5.61-3.468-1.587-1.496-2.833-3.31-3.74-5.44-.907-2.13-1.36-4.533-1.36-7.208 0-2.584.442-4.953 1.326-7.106.884-2.153 2.108-4 3.672-5.542 1.564-1.54 3.39-2.73 5.474-3.57 2.085-.84 4.352-1.258 6.8-1.258 2.493 0 4.737.42 6.732 1.258 1.995.84 3.695 2.006 5.1 3.502 1.405 1.496 2.482 3.298 3.23 5.406.748 2.108 1.122 4.454 1.122 7.038zm14.156 32.98h-8.16v-49.232h7.82v4.76h.204c1.18-1.723 2.765-3.094 4.76-4.114 1.995-1.02 4.193-1.53 6.596-1.53 2.493 0 4.737.453 6.732 1.36s3.695 2.142 5.1 3.706c1.405 1.564 2.493 3.4 3.264 5.508.77 2.108 1.156 4.34 1.156 6.698 0 2.357-.374 4.59-1.122 6.698-.748 2.108-1.825 3.955-3.23 5.542-1.405 1.587-3.117 2.845-5.134 3.774-2.017.93-4.273 1.394-6.766 1.394-2.176 0-4.273-.465-6.29-1.394-2.017-.93-3.615-2.255-4.794-3.978h-.136v20.808zm19.38-32.844c0-1.405-.215-2.754-.646-4.046-.43-1.292-1.054-2.425-1.87-3.4-.816-.975-1.836-1.745-3.06-2.312-1.224-.567-2.652-.85-4.284-.85-1.496 0-2.856.283-4.08.85-1.224.567-2.278 1.337-3.162 2.312-.884.975-1.564 2.108-2.04 3.4-.476 1.292-.714 2.64-.714 4.046 0 1.45.238 2.822.714 4.114.476 1.292 1.156 2.414 2.04 3.366.884.952 1.938 1.71 3.162 2.278 1.224.567 2.584.85 4.08.85 1.632 0 3.06-.283 4.284-.85 1.224-.567 2.244-1.337 3.06-2.312.816-.975 1.44-2.108 1.87-3.4.43-1.292.646-2.64.646-4.046zm34.012-4.692c0-2.176-.657-3.785-1.972-4.828-1.315-1.043-3.06-1.564-5.236-1.564-1.723 0-3.366.34-4.93 1.02-1.564.68-2.89 1.54-3.978 2.584l-4.216-4.692c1.677-1.587 3.73-2.845 6.154-3.774 2.425-.93 4.998-1.394 7.718-1.394 4.307 0 7.66 1.02 10.064 3.06 2.403 2.04 3.717 5.236 3.944 9.588.045.635.08 1.27.102 1.904.023.635.034 1.292.034 1.972v10.404c0 1.18.023 2.37.068 3.57.045 1.2.113 2.323.204 3.366h-7.48c-.045-.68-.09-1.383-.136-2.108-.045-.725-.068-1.473-.068-2.244h-.136c-1.18 1.723-2.652 3.015-4.42 3.876-1.768.86-3.808 1.292-6.12 1.292-1.27 0-2.595-.18-3.978-.544-1.383-.363-2.64-.94-3.774-1.734-1.133-.793-2.074-1.836-2.822-3.128-.748-1.292-1.122-2.89-1.122-4.794 0-2.448.646-4.397 1.938-5.848 1.292-1.45 2.992-2.56 5.1-3.332 2.108-.77 4.477-1.27 7.106-1.496 2.63-.227 5.28-.34 7.956-.34v-.816zm-1.224 5.916c-1.54 0-3.094.068-4.658.204-1.564.136-2.97.397-4.216.782-1.247.385-2.267.952-3.06 1.7-.793.748-1.19 1.734-1.19 2.958 0 .907.18 1.655.544 2.244.363.59.827 1.065 1.394 1.428s1.213.623 1.938.782c.725.16 1.45.238 2.176.238 2.72 0 4.805-.827 6.256-2.482 1.45-1.655 2.176-3.706 2.176-6.154v-1.7h-1.36z"/>
    <path fill="#EC3A3E" d="M7.32 250.68h9.96c1.093 0 2.2.113 3.32.34 1.12.227 2.127.613 3.02 1.16.893.547 1.627 1.287 2.2 2.22.573.933.86 2.12.86 3.56 0 1.52-.44 2.813-1.32 3.88-.88 1.067-2.04 1.8-3.48 2.2v.08c.853.133 1.653.38 2.4.74.747.36 1.393.827 1.94 1.4.547.573.973 1.253 1.28 2.04.307.787.46 1.673.46 2.66 0 1.36-.28 2.547-.84 3.56-.56 1.013-1.327 1.853-2.3 2.52-.973.667-2.107 1.16-3.4 1.48-1.293.32-2.673.48-4.14.48H7.32v-28.32zm4.88 11.8h4.64c.667 0 1.3-.073 1.9-.22.6-.147 1.127-.38 1.58-.7.453-.32.813-.727 1.08-1.22.267-.493.4-1.1.4-1.82 0-1.333-.507-2.293-1.52-2.88-1.013-.587-2.333-.88-3.96-.88H12.2v7.72zm0 12.4h4.52c.773 0 1.533-.073 2.28-.22.747-.147 1.407-.387 1.98-.72.573-.333 1.04-.78 1.4-1.34.36-.56.54-1.253.54-2.08 0-1.52-.533-2.607-1.6-3.26-1.067-.653-2.52-.98-4.36-.98H12.2v8.6zm23.49-15.24v6.24h2.96c1.68 0 3.093.14 4.24.42 1.147.28 2.08.693 2.8 1.24.72.547 1.24 1.227 1.56 2.04.32.813.48 1.753.48 2.82 0 2.24-.78 3.9-2.34 4.98-1.56 1.08-3.86 1.62-6.9 1.62h-7.6v-19.36h4.8zm0 15.88h3.28c1.2 0 2.167-.22 2.9-.66.733-.44 1.1-1.26 1.1-2.46s-.387-2.007-1.16-2.42c-.773-.413-1.76-.62-2.96-.62h-3.16v6.16zm18.88-15.88V279h-4.8v-19.36h4.8zm20.22 8.08c1.093 0 1.987-.147 2.68-.44.693-.293 1.04-.92 1.04-1.88 0-.56-.133-.993-.4-1.3-.267-.307-.627-.54-1.08-.7-.453-.16-.987-.253-1.6-.28-.613-.027-1.267-.04-1.96-.04h-2.48v4.64h3.8zm-3.8 7.84h2.92c.747 0 1.453-.013 2.12-.04.667-.027 1.247-.113 1.74-.26.493-.147.887-.38 1.18-.7.293-.32.44-.787.44-1.4 0-.587-.147-1.047-.44-1.38-.293-.333-.687-.58-1.18-.74-.493-.16-1.073-.26-1.74-.3-.667-.04-1.373-.06-2.12-.06h-2.92v4.88zm-4.8 3.44v-19.36h9.68c2.453 0 4.313.467 5.58 1.4 1.267.933 1.9 2.2 1.9 3.8 0 .72-.113 1.32-.34 1.8-.227.48-.54.88-.94 1.2-.4.32-.86.58-1.38.78-.52.2-1.073.38-1.66.54.72.053 1.4.173 2.04.36.64.187 1.2.467 1.68.84.48.373.86.847 1.14 1.42.28.573.42 1.26.42 2.06 0 1.547-.693 2.793-2.08 3.74-1.387.947-3.347 1.42-5.88 1.42H66.19zm25.17-19.36v6.24h2.96c1.68 0 3.093.14 4.24.42 1.147.28 2.08.693 2.8 1.24.72.547 1.24 1.227 1.56 2.04.32.813.48 1.753.48 2.82 0 2.24-.78 3.9-2.34 4.98-1.56 1.08-3.86 1.62-6.9 1.62h-7.6v-19.36h4.8zm0 15.88h3.28c1.2 0 2.167-.22 2.9-.66.733-.44 1.1-1.26 1.1-2.46s-.387-2.007-1.16-2.42c-.773-.413-1.76-.62-2.96-.62h-3.16v6.16zm18.88-15.88V279h-4.8v-19.36h4.8zm13.85.12c1.387 0 2.667.227 3.84.68 1.173.453 2.187 1.107 3.04 1.96.853.853 1.527 1.887 2.02 3.1.493 1.213.74 2.58.74 4.1 0 1.52-.26 2.893-.78 4.12-.52 1.227-1.24 2.273-2.16 3.14-.92.867-2.007 1.533-3.26 2-1.253.467-2.613.7-4.08.7-1.36 0-2.613-.207-3.76-.62-1.147-.413-2.153-1.02-3.02-1.82s-1.58-1.78-2.14-2.94-.92-2.5-1.08-4.02c-.08-.507-.133-1.02-.16-1.54-.027-.52-.04-1.047-.04-1.58.08-2.853.4-5.307.96-7.36.56-2.053 1.4-3.747 2.52-5.08 1.12-1.333 2.533-2.313 4.24-2.94 1.707-.627 3.733-.94 6.08-.94h5.96v3.72h-6.04c-1.44 0-2.667.173-3.68.52-1.013.347-1.867.847-2.56 1.5-.693.653-1.233 1.453-1.62 2.4-.387.947-.66 2.007-.82 3.18.693-.747 1.56-1.313 2.6-1.7s2.107-.58 3.2-.58zm5 9.88c0-.853-.133-1.64-.4-2.36s-.64-1.347-1.12-1.88c-.48-.533-1.053-.947-1.72-1.24-.667-.293-1.4-.44-2.2-.44-.773 0-1.507.12-2.2.36-.693.24-1.3.593-1.82 1.06-.52.467-.933 1.06-1.24 1.78-.307.72-.46 1.56-.46 2.52 0 1.84.513 3.327 1.54 4.46 1.027 1.133 2.407 1.7 4.14 1.7.853 0 1.62-.153 2.3-.46.68-.307 1.253-.733 1.72-1.28.467-.547.827-1.18 1.08-1.9.253-.72.38-1.493.38-2.32zm22.21-3.88l-10 13.24h-4.84v-19.36h4.84v12.92l10-12.92h4.84V279h-4.84v-13.24zm13.49 22.84h-4.8v-28.96h4.6v2.8h.12c.693-1.013 1.627-1.82 2.8-2.42 1.173-.6 2.467-.9 3.88-.9 1.467 0 2.787.267 3.96.8s2.173 1.26 3 2.18c.827.92 1.467 2 1.92 3.24.453 1.24.68 2.553.68 3.94s-.22 2.7-.66 3.94c-.44 1.24-1.073 2.327-1.9 3.26-.827.933-1.833 1.673-3.02 2.22-1.187.547-2.513.82-3.98.82-1.28 0-2.513-.273-3.7-.82-1.187-.547-2.127-1.327-2.82-2.34h-.08v12.24zm11.4-19.32c0-.827-.127-1.62-.38-2.38-.253-.76-.62-1.427-1.1-2-.48-.573-1.08-1.027-1.8-1.36-.72-.333-1.56-.5-2.52-.5-.88 0-1.68.167-2.4.5-.72.333-1.34.787-1.86 1.36-.52.573-.92 1.24-1.2 2-.28.76-.42 1.553-.42 2.38 0 .853.14 1.66.42 2.42.28.76.68 1.42 1.2 1.98.52.56 1.14 1.007 1.86 1.34.72.333 1.52.5 2.4.5.96 0 1.8-.167 2.52-.5.72-.333 1.32-.787 1.8-1.36.48-.573.847-1.24 1.1-2 .253-.76.38-1.553.38-2.38zm19.21-2.76c0-1.28-.387-2.227-1.16-2.84-.773-.613-1.8-.92-3.08-.92-1.013 0-1.98.2-2.9.6-.92.4-1.7.907-2.34 1.52l-2.48-2.76c.987-.933 2.193-1.673 3.62-2.22 1.427-.547 2.94-.82 4.54-.82 2.533 0 4.507.6 5.92 1.8 1.413 1.2 2.187 3.08 2.32 5.64.027.373.047.747.06 1.12.013.373.02.76.02 1.16v6.12c0 .693.013 1.393.04 2.1.027.707.067 1.367.12 1.98h-4.4c-.027-.4-.053-.813-.08-1.24-.027-.427-.04-.867-.04-1.32h-.08c-.693 1.013-1.56 1.773-2.6 2.28-1.04.507-2.24.76-3.6.76-.747 0-1.527-.107-2.34-.32-.813-.213-1.553-.553-2.22-1.02-.667-.467-1.22-1.08-1.66-1.84-.44-.76-.66-1.7-.66-2.82 0-1.44.38-2.587 1.14-3.44.76-.853 1.76-1.507 3-1.96 1.24-.453 2.633-.747 4.18-.88 1.547-.133 3.107-.2 4.68-.2v-.48zm-.72 3.48c-.907 0-1.82.04-2.74.12-.92.08-1.747.233-2.48.46-.733.227-1.333.56-1.8 1-.467.44-.7 1.02-.7 1.74 0 .533.107.973.32 1.32.213.347.487.627.82.84.333.213.713.367 1.14.46.427.093.853.14 1.28.14 1.6 0 2.827-.487 3.68-1.46.853-.973 1.28-2.18 1.28-3.62v-1h-.8zm22.89-2.56c-.027-1.387-.46-2.547-1.3-3.48-.84-.933-2.06-1.4-3.66-1.4-.773 0-1.48.133-2.12.4-.64.267-1.2.62-1.68 1.06-.48.44-.86.96-1.14 1.56-.28.6-.447 1.22-.5 1.86h10.4zm4.56 1.76v.68c0 .24-.013.48-.04.72h-14.96c.027.72.2 1.4.52 2.04.32.64.74 1.187 1.26 1.64.52.453 1.113.813 1.78 1.08.667.267 1.387.4 2.16.4 1.2 0 2.24-.253 3.12-.76.88-.507 1.56-1.12 2.04-1.84l3.4 2.28c-1.013 1.387-2.247 2.42-3.7 3.1-1.453.68-3.087 1.02-4.9 1.02-1.44 0-2.793-.24-4.06-.72-1.267-.48-2.367-1.16-3.3-2.04-.933-.88-1.667-1.947-2.2-3.2-.533-1.253-.8-2.667-.8-4.24 0-1.52.26-2.913.78-4.18s1.24-2.353 2.16-3.26c.92-.907 1.993-1.607 3.22-2.1 1.227-.493 2.56-.74 4-.74 1.467 0 2.787.247 3.96.74s2.173 1.18 3 2.06c.827.88 1.46 1.94 1.9 3.18.44 1.24.66 2.62.66 4.14zm.29-9.56h17.12v3.8h-6.28V279h-4.8v-15.56h-6.04v-3.8zm32.57 7.8c-.027-1.387-.46-2.547-1.3-3.48-.84-.933-2.06-1.4-3.66-1.4-.773 0-1.48.133-2.12.4-.64.267-1.2.62-1.68 1.06-.48.44-.86.96-1.14 1.56-.28.6-.447 1.22-.5 1.86h10.4zm4.56 1.76v.68c0 .24-.013.48-.04.72h-14.96c.027.72.2 1.4.52 2.04.32.64.74 1.187 1.26 1.64.52.453 1.113.813 1.78 1.08.667.267 1.387.4 2.16.4 1.2 0 2.24-.253 3.12-.76.88-.507 1.56-1.12 2.04-1.84l3.4 2.28c-1.013 1.387-2.247 2.42-3.7 3.1-1.453.68-3.087 1.02-4.9 1.02-1.44 0-2.793-.24-4.06-.72-1.267-.48-2.367-1.16-3.3-2.04-.933-.88-1.667-1.947-2.2-3.2-.533-1.253-.8-2.667-.8-4.24 0-1.52.26-2.913.78-4.18s1.24-2.353 2.16-3.26c.92-.907 1.993-1.607 3.22-2.1 1.227-.493 2.56-.74 4-.74 1.467 0 2.787.247 3.96.74s2.173 1.18 3 2.06c.827.88 1.46 1.94 1.9 3.18.44 1.24.66 2.62.66 4.14zm18.74 2h-9.6v-4.08h9.6v4.08zm14.46-11.56l7.32 8.76 7.2-8.76h4.2V279h-4.8v-12.64l-6.08 7.92h-1.12l-6.12-7.8V279h-4.8v-19.36h4.2zm27.29 0v6.24H323c1.68 0 3.093.14 4.24.42 1.147.28 2.08.693 2.8 1.24.72.547 1.24 1.227 1.56 2.04.32.813.48 1.753.48 2.82 0 2.24-.78 3.9-2.34 4.98-1.56 1.08-3.86 1.62-6.9 1.62h-7.6v-19.36h4.8zm0 15.88h3.28c1.2 0 2.167-.22 2.9-.66.733-.44 1.1-1.26 1.1-2.46s-.387-2.007-1.16-2.42c-.773-.413-1.76-.62-2.96-.62h-3.16v6.16zm18.88-15.88V279h-4.8v-19.36h4.8zm16.5 28.96h-4.8v-28.96h4.6v2.8h.12c.693-1.013 1.627-1.82 2.8-2.42 1.173-.6 2.467-.9 3.88-.9 1.467 0 2.787.267 3.96.8s2.173 1.26 3 2.18c.827.92 1.467 2 1.92 3.24.453 1.24.68 2.553.68 3.94s-.22 2.7-.66 3.94c-.44 1.24-1.073 2.327-1.9 3.26-.827.933-1.833 1.673-3.02 2.22-1.187.547-2.513.82-3.98.82-1.28 0-2.513-.273-3.7-.82-1.187-.547-2.127-1.327-2.82-2.34h-.08v12.24zm11.4-19.32c0-.827-.127-1.62-.38-2.38-.253-.76-.62-1.427-1.1-2-.48-.573-1.08-1.027-1.8-1.36-.72-.333-1.56-.5-2.52-.5-.88 0-1.68.167-2.4.5-.72.333-1.34.787-1.86 1.36-.52.573-.92 1.24-1.2 2-.28.76-.42 1.553-.42 2.38 0 .853.14 1.66.42 2.42.28.76.68 1.42 1.2 1.98.52.56 1.14 1.007 1.86 1.34.72.333 1.52.5 2.4.5.96 0 1.8-.167 2.52-.5.72-.333 1.32-.787 1.8-1.36.48-.573.847-1.24 1.1-2 .253-.76.38-1.553.38-2.38zm19.21-2.76c0-1.28-.387-2.227-1.16-2.84-.773-.613-1.8-.92-3.08-.92-1.013 0-1.98.2-2.9.6-.92.4-1.7.907-2.34 1.52l-2.48-2.76c.987-.933 2.193-1.673 3.62-2.22 1.427-.547 2.94-.82 4.54-.82 2.533 0 4.507.6 5.92 1.8 1.413 1.2 2.187 3.08 2.32 5.64.027.373.047.747.06 1.12.013.373.02.76.02 1.16v6.12c0 .693.013 1.393.04 2.1.027.707.067 1.367.12 1.98h-4.4c-.027-.4-.053-.813-.08-1.24-.027-.427-.04-.867-.04-1.32h-.08c-.693 1.013-1.56 1.773-2.6 2.28-1.04.507-2.24.76-3.6.76-.747 0-1.527-.107-2.34-.32-.813-.213-1.553-.553-2.22-1.02-.667-.467-1.22-1.08-1.66-1.84-.44-.76-.66-1.7-.66-2.82 0-1.44.38-2.587 1.14-3.44.76-.853 1.76-1.507 3-1.96 1.24-.453 2.633-.747 4.18-.88 1.547-.133 3.107-.2 4.68-.2v-.48zm-.72 3.48c-.907 0-1.82.04-2.74.12-.92.08-1.747.233-2.48.46-.733.227-1.333.56-1.8 1-.467.44-.7 1.02-.7 1.74 0 .533.107.973.32 1.32.213.347.487.627.82.84.333.213.713.367 1.14.46.427.093.853.14 1.28.14 1.6 0 2.827-.487 3.68-1.46.853-.973 1.28-2.18 1.28-3.62v-1h-.8zm18.93-10.24c1.387 0 2.667.227 3.84.68 1.173.453 2.187 1.107 3.04 1.96.853.853 1.527 1.887 2.02 3.1.493 1.213.74 2.58.74 4.1 0 1.52-.26 2.893-.78 4.12-.52 1.227-1.24 2.273-2.16 3.14-.92.867-2.007 1.533-3.26 2-1.253.467-2.613.7-4.08.7-1.36 0-2.613-.207-3.76-.62-1.147-.413-2.153-1.02-3.02-1.82s-1.58-1.78-2.14-2.94-.92-2.5-1.08-4.02c-.08-.507-.133-1.02-.16-1.54-.027-.52-.04-1.047-.04-1.58.08-2.853.4-5.307.96-7.36.56-2.053 1.4-3.747 2.52-5.08 1.12-1.333 2.533-2.313 4.24-2.94 1.707-.627 3.733-.94 6.08-.94h5.96v3.72h-6.04c-1.44 0-2.667.173-3.68.52-1.013.347-1.867.847-2.56 1.5-.693.653-1.233 1.453-1.62 2.4-.387.947-.66 2.007-.82 3.18.693-.747 1.56-1.313 2.6-1.7s2.107-.58 3.2-.58zm5 9.88c0-.853-.133-1.64-.4-2.36s-.64-1.347-1.12-1.88c-.48-.533-1.053-.947-1.72-1.24-.667-.293-1.4-.44-2.2-.44-.773 0-1.507.12-2.2.36-.693.24-1.3.593-1.82 1.06-.52.467-.933 1.06-1.24 1.78-.307.72-.46 1.56-.46 2.52 0 1.84.513 3.327 1.54 4.46 1.027 1.133 2.407 1.7 4.14 1.7.853 0 1.62-.153 2.3-.46.68-.307 1.253-.733 1.72-1.28.467-.547.827-1.18 1.08-1.9.253-.72.38-1.493.38-2.32zm27.45-.36c0 1.52-.273 2.913-.82 4.18-.547 1.267-1.293 2.353-2.24 3.26-.947.907-2.067 1.607-3.36 2.1-1.293.493-2.687.74-4.18.74-1.493 0-2.88-.247-4.16-.74-1.28-.493-2.393-1.193-3.34-2.1-.947-.907-1.693-1.993-2.24-3.26-.547-1.267-.82-2.66-.82-4.18 0-1.52.273-2.907.82-4.16.547-1.253 1.293-2.327 2.24-3.22.947-.893 2.06-1.587 3.34-2.08 1.28-.493 2.667-.74 4.16-.74 1.493 0 2.887.247 4.18.74 1.293.493 2.413 1.187 3.36 2.08.947.893 1.693 1.967 2.24 3.22.547 1.253.82 2.64.82 4.16zm-4.76 0c0-.827-.133-1.62-.4-2.38-.267-.76-.647-1.427-1.14-2-.493-.573-1.107-1.027-1.84-1.36-.733-.333-1.553-.5-2.46-.5s-1.72.167-2.44.5c-.72.333-1.327.787-1.82 1.36-.493.573-.873 1.24-1.14 2-.267.76-.4 1.553-.4 2.38s.133 1.62.4 2.38c.267.76.647 1.427 1.14 2 .493.573 1.1 1.027 1.82 1.36.72.333 1.533.5 2.44.5s1.727-.167 2.46-.5c.733-.333 1.347-.787 1.84-1.36.493-.573.873-1.24 1.14-2 .267-.76.4-1.553.4-2.38zm5.09-9.64h17.12v3.8h-6.28V279h-4.8v-15.56h-6.04v-3.8zm30.29 6.88c0-1.28-.387-2.227-1.16-2.84-.773-.613-1.8-.92-3.08-.92-1.013 0-1.98.2-2.9.6-.92.4-1.7.907-2.34 1.52l-2.48-2.76c.987-.933 2.193-1.673 3.62-2.22 1.427-.547 2.94-.82 4.54-.82 2.533 0 4.507.6 5.92 1.8 1.413 1.2 2.187 3.08 2.32 5.64.027.373.047.747.06 1.12.013.373.02.76.02 1.16v6.12c0 .693.013 1.393.04 2.1.027.707.067 1.367.12 1.98h-4.4c-.027-.4-.053-.813-.08-1.24-.027-.427-.04-.867-.04-1.32h-.08c-.693 1.013-1.56 1.773-2.6 2.28-1.04.507-2.24.76-3.6.76-.747 0-1.527-.107-2.34-.32-.813-.213-1.553-.553-2.22-1.02-.667-.467-1.22-1.08-1.66-1.84-.44-.76-.66-1.7-.66-2.82 0-1.44.38-2.587 1.14-3.44.76-.853 1.76-1.507 3-1.96 1.24-.453 2.633-.747 4.18-.88 1.547-.133 3.107-.2 4.68-.2v-.48zm-.72 3.48c-.907 0-1.82.04-2.74.12-.92.08-1.747.233-2.48.46-.733.227-1.333.56-1.8 1-.467.44-.7 1.02-.7 1.74 0 .533.107.973.32 1.32.213.347.487.627.82.84.333.213.713.367 1.14.46.427.093.853.14 1.28.14 1.6 0 2.827-.487 3.68-1.46.853-.973 1.28-2.18 1.28-3.62v-1h-.8zm22.89-2.56c-.027-1.387-.46-2.547-1.3-3.48-.84-.933-2.06-1.4-3.66-1.4-.773 0-1.48.133-2.12.4-.64.267-1.2.62-1.68 1.06-.48.44-.86.96-1.14 1.56-.28.6-.447 1.22-.5 1.86h10.4zm4.56 1.76v.68c0 .24-.013.48-.04.72h-14.96c.027.72.2 1.4.52 2.04.32.64.74 1.187 1.26 1.64.52.453 1.113.813 1.78 1.08.667.267 1.387.4 2.16.4 1.2 0 2.24-.253 3.12-.76.88-.507 1.56-1.12 2.04-1.84l3.4 2.28c-1.013 1.387-2.247 2.42-3.7 3.1-1.453.68-3.087 1.02-4.9 1.02-1.44 0-2.793-.24-4.06-.72-1.267-.48-2.367-1.16-3.3-2.04-.933-.88-1.667-1.947-2.2-3.2-.533-1.253-.8-2.667-.8-4.24 0-1.52.26-2.913.78-4.18s1.24-2.353 2.16-3.26c.92-.907 1.993-1.607 3.22-2.1 1.227-.493 2.56-.74 4-.74 1.467 0 2.787.247 3.96.74s2.173 1.18 3 2.06c.827.88 1.46 1.94 1.9 3.18.44 1.24.66 2.62.66 4.14zm6.85-9.56l7.32 8.76 7.2-8.76h4.2V279h-4.8v-12.64l-6.08 7.92h-1.12l-6.12-7.8V279h-4.8v-19.36h4.2zm28.73 10.48h-4.8v-19.44h4.8v19.44zm-5.6 6.08c0-.853.313-1.587.94-2.2.627-.613 1.38-.92 2.26-.92.853 0 1.6.293 2.24.88.64.587.96 1.307.96 2.16 0 .853-.313 1.587-.94 2.2-.627.613-1.38.92-2.26.92-.427 0-.833-.08-1.22-.24-.387-.16-.727-.373-1.02-.64-.293-.267-.527-.587-.7-.96-.173-.373-.26-.773-.26-1.2z"/>
    <path d="M0 0h533v294H0z"/>
  </g>
</svg>
