<svg xmlns="http://www.w3.org/2000/svg" viewBox="-34 0 526 288" xmlns:xlink="http://www.w3.org/1999/xlink">
  <defs>
    <path id="a" d="M186 1h153v148H186z"/>
    <mask id="b" width="153" height="148" x="0" y="0" fill="#fff">
      <use xlink:href="#a"/>
    </mask>
  </defs>
  <g fill="none" fill-rule="evenodd" transform="translate(-39 -1)">
    <use stroke="#EC3A3E" stroke-width="10" mask="url(#b)" xlink:href="#a"/>
    <path fill="#EC3A3E" d="M197 89v48h129V89h-23s-4.235 12.353-15 20-20.383 9-26.5 9c-6.364 0-16.86-3.223-24.5-9-7.64-5.777-15-20-15-20h-25zm129-23h-22s-7-33-42-33c-34 2-47 32-40 56-3.293-2.263-5.93-4.99-8.03-7.96-8.103-11.466-8.19-26.552-6.97-32.54C213 19 237 13 244 13h82v53z"/>
    <path fill="#444" d="M39.304 173.856h15.708c2.765 0 5.26.25 7.48.748 2.22.5 4.125 1.315 5.712 2.448 1.587 1.133 2.81 2.584 3.672 4.352.86 1.768 1.292 3.9 1.292 6.392 0 2.675-.5 4.92-1.496 6.732-.997 1.813-2.346 3.275-4.046 4.386-1.7 1.11-3.683 1.915-5.95 2.414-2.267.5-4.67.748-7.208.748h-6.596V222h-8.568v-48.144zm14.552 21.012c1.405 0 2.743-.102 4.012-.306 1.27-.204 2.403-.567 3.4-1.088.997-.52 1.79-1.235 2.38-2.142.59-.907.884-2.085.884-3.536 0-1.405-.295-2.55-.884-3.434-.59-.884-1.37-1.575-2.346-2.074-.975-.5-2.085-.827-3.332-.986-1.247-.16-2.527-.238-3.842-.238h-6.256v13.804h5.984zm22.692-5.508h7.82v5.44h.136c.907-1.904 2.176-3.445 3.808-4.624 1.632-1.18 3.536-1.768 5.712-1.768.317 0 .657.01 1.02.034.363.023.68.08.952.17v7.48c-.544-.136-1.01-.227-1.394-.272-.385-.045-.76-.068-1.122-.068-1.86 0-3.355.34-4.488 1.02-1.133.68-2.017 1.496-2.652 2.448-.635.952-1.065 1.927-1.292 2.924-.227.997-.34 1.79-.34 2.38V222h-8.16v-32.64zm20.924 16.184c0-2.584.465-4.93 1.394-7.038.93-2.108 2.187-3.91 3.774-5.406 1.587-1.496 3.468-2.652 5.644-3.468 2.176-.816 4.488-1.224 6.936-1.224 2.448 0 4.76.408 6.936 1.224 2.176.816 4.057 1.972 5.644 3.468 1.587 1.496 2.845 3.298 3.774 5.406.93 2.108 1.394 4.454 1.394 7.038 0 2.584-.465 4.94-1.394 7.072-.93 2.13-2.187 3.955-3.774 5.474-1.587 1.52-3.468 2.71-5.644 3.57-2.176.86-4.488 1.292-6.936 1.292-2.448 0-4.76-.43-6.936-1.292-2.176-.86-4.057-2.05-5.644-3.57-1.587-1.52-2.845-3.343-3.774-5.474-.93-2.13-1.394-4.488-1.394-7.072zm8.296 0c0 1.27.193 2.54.578 3.808.385 1.27.963 2.403 1.734 3.4.77.997 1.745 1.813 2.924 2.448 1.18.635 2.584.952 4.216.952 1.632 0 3.037-.317 4.216-.952 1.18-.635 2.153-1.45 2.924-2.448.77-.997 1.35-2.13 1.734-3.4.385-1.27.578-2.54.578-3.808 0-1.27-.193-2.527-.578-3.774-.385-1.247-.963-2.37-1.734-3.366-.77-.997-1.745-1.802-2.924-2.414-1.18-.612-2.584-.918-4.216-.918-1.632 0-3.037.306-4.216.918-1.18.612-2.153 1.417-2.924 2.414-.77.997-1.35 2.12-1.734 3.366-.385 1.247-.578 2.505-.578 3.774zm73.352-17.136c2.13 0 3.955.374 5.474 1.122 1.52.748 2.765 1.734 3.74 2.958.975 1.224 1.69 2.63 2.142 4.216.453 1.587.68 3.22.68 4.896V222h-8.16v-18.088c0-.952-.068-1.95-.204-2.992-.136-1.043-.43-1.983-.884-2.822-.453-.84-1.077-1.53-1.87-2.074-.793-.544-1.847-.816-3.162-.816-1.27 0-2.357.272-3.264.816-.907.544-1.655 1.247-2.244 2.108-.59.86-1.02 1.825-1.292 2.89-.272 1.065-.408 2.12-.408 3.162V222h-8.16v-19.72c0-2.04-.487-3.73-1.462-5.066-.975-1.337-2.505-2.006-4.59-2.006-1.224 0-2.29.26-3.196.782-.907.52-1.643 1.19-2.21 2.006-.567.816-.997 1.757-1.292 2.822-.295 1.065-.442 2.142-.442 3.23V222h-8.16v-32.64h7.752v5.236h.136c.363-.816.85-1.587 1.462-2.312.612-.725 1.337-1.383 2.176-1.972.84-.59 1.802-1.054 2.89-1.394 1.088-.34 2.29-.51 3.604-.51 2.54 0 4.647.567 6.324 1.7 1.677 1.133 2.97 2.63 3.876 4.488 1.088-1.995 2.54-3.525 4.352-4.59 1.813-1.065 3.944-1.598 6.392-1.598zm21.264-14.552h8.568v19.448h22.508v-19.448h8.568V222h-8.568v-21.352h-22.508V222h-8.568v-48.144zm49.28 15.504h8.16V222h-8.16v-32.64zm-1.156-11.084c0-1.315.487-2.46 1.462-3.434.975-.975 2.21-1.462 3.706-1.462s2.754.465 3.774 1.394c1.02.93 1.53 2.097 1.53 3.502 0 1.405-.51 2.573-1.53 3.502-1.02.93-2.278 1.394-3.774 1.394s-2.73-.487-3.706-1.462c-.975-.975-1.462-2.12-1.462-3.434zm57.508 10.132c2.13 0 3.955.374 5.474 1.122 1.52.748 2.765 1.734 3.74 2.958.975 1.224 1.69 2.63 2.142 4.216.453 1.587.68 3.22.68 4.896V222h-8.16v-18.088c0-.952-.068-1.95-.204-2.992-.136-1.043-.43-1.983-.884-2.822-.453-.84-1.077-1.53-1.87-2.074-.793-.544-1.847-.816-3.162-.816-1.27 0-2.357.272-3.264.816-.907.544-1.655 1.247-2.244 2.108-.59.86-1.02 1.825-1.292 2.89-.272 1.065-.408 2.12-.408 3.162V222h-8.16v-19.72c0-2.04-.487-3.73-1.462-5.066-.975-1.337-2.505-2.006-4.59-2.006-1.224 0-2.29.26-3.196.782-.907.52-1.643 1.19-2.21 2.006-.567.816-.997 1.757-1.292 2.822-.295 1.065-.442 2.142-.442 3.23V222h-8.16v-32.64h7.752v5.236h.136c.363-.816.85-1.587 1.462-2.312.612-.725 1.337-1.383 2.176-1.972.84-.59 1.802-1.054 2.89-1.394 1.088-.34 2.29-.51 3.604-.51 2.54 0 4.647.567 6.324 1.7 1.677 1.133 2.97 2.63 3.876 4.488 1.088-1.995 2.54-3.525 4.352-4.59 1.813-1.065 3.944-1.598 6.392-1.598zm35 20.332h-16.32v-6.936h16.32v6.936zm31.056-24.82c-.907-1.18-2.187-2.165-3.842-2.958-1.655-.793-3.32-1.19-4.998-1.19-.997 0-1.995.125-2.992.374-.997.25-1.904.635-2.72 1.156-.816.52-1.485 1.2-2.006 2.04-.52.84-.782 1.847-.782 3.026 0 1.088.227 2.017.68 2.788.453.77 1.077 1.428 1.87 1.972.793.544 1.757 1.02 2.89 1.428 1.133.408 2.38.816 3.74 1.224 1.54.5 3.14 1.065 4.794 1.7 1.655.635 3.173 1.473 4.556 2.516s2.516 2.357 3.4 3.944c.884 1.587 1.326 3.56 1.326 5.916 0 2.584-.476 4.84-1.428 6.766-.952 1.927-2.22 3.525-3.808 4.794-1.587 1.27-3.445 2.22-5.576 2.856-2.13.635-4.375.952-6.732.952-3.128 0-6.188-.578-9.18-1.734-2.992-1.156-5.44-2.867-7.344-5.134l6.12-5.712c1.18 1.632 2.754 2.924 4.726 3.876s3.91 1.428 5.814 1.428c.997 0 2.017-.125 3.06-.374 1.043-.25 1.983-.67 2.822-1.258.84-.59 1.52-1.326 2.04-2.21.52-.884.782-1.983.782-3.298 0-1.27-.295-2.323-.884-3.162-.59-.84-1.383-1.564-2.38-2.176-.997-.612-2.176-1.145-3.536-1.598l-4.284-1.428c-1.45-.453-2.9-.997-4.352-1.632-1.45-.635-2.754-1.473-3.91-2.516-1.156-1.043-2.097-2.323-2.822-3.842-.725-1.52-1.088-3.41-1.088-5.678 0-2.448.51-4.556 1.53-6.324 1.02-1.768 2.357-3.23 4.012-4.386 1.655-1.156 3.536-2.017 5.644-2.584 2.108-.567 4.25-.85 6.426-.85 2.448 0 4.93.43 7.446 1.292 2.516.86 4.703 2.153 6.562 3.876l-5.576 6.12zm14.668 11.968h-6.188v-6.528h6.188v-4.828c0-1.95.215-3.82.646-5.61.43-1.79 1.156-3.366 2.176-4.726 1.02-1.36 2.37-2.437 4.046-3.23 1.677-.793 3.785-1.19 6.324-1.19.907 0 1.666.034 2.278.102.612.068 1.235.193 1.87.374l-.544 6.936c-.453-.136-.94-.25-1.462-.34-.52-.09-1.077-.136-1.666-.136-1.18 0-2.13.227-2.856.68-.725.453-1.28 1.043-1.666 1.768-.385.725-.646 1.52-.782 2.38-.136.86-.204 1.7-.204 2.516v5.304h7.548v6.528H394.9V222h-8.16v-26.112zm43.024 6.528c0-1.043-.147-2.04-.442-2.992-.295-.952-.76-1.79-1.394-2.516-.635-.725-1.44-1.303-2.414-1.734-.975-.43-2.12-.646-3.434-.646-2.448 0-4.522.737-6.222 2.21-1.7 1.473-2.64 3.366-2.822 5.678h16.728zm8.16 3.672v1.088c0 .363-.023.725-.068 1.088h-24.82c.09 1.18.397 2.255.918 3.23.52.975 1.213 1.813 2.074 2.516.86.703 1.836 1.258 2.924 1.666 1.088.408 2.22.612 3.4.612 2.04 0 3.763-.374 5.168-1.122 1.405-.748 2.56-1.78 3.468-3.094l5.44 4.352c-3.22 4.352-7.888 6.528-14.008 6.528-2.54 0-4.873-.397-7.004-1.19-2.13-.793-3.978-1.915-5.542-3.366-1.564-1.45-2.788-3.23-3.672-5.338-.884-2.108-1.326-4.5-1.326-7.174 0-2.63.442-5.02 1.326-7.174.884-2.153 2.097-3.99 3.638-5.508 1.54-1.52 3.366-2.697 5.474-3.536 2.108-.84 4.386-1.258 6.834-1.258 2.267 0 4.363.374 6.29 1.122 1.927.748 3.593 1.86 4.998 3.332 1.405 1.473 2.505 3.31 3.298 5.508.793 2.2 1.19 4.77 1.19 7.718zm7.188-16.728h7.82v5.44h.136c.907-1.904 2.176-3.445 3.808-4.624 1.632-1.18 3.536-1.768 5.712-1.768.317 0 .657.01 1.02.034.363.023.68.08.952.17v7.48c-.544-.136-1.01-.227-1.394-.272-.385-.045-.76-.068-1.122-.068-1.86 0-3.355.34-4.488 1.02-1.133.68-2.017 1.496-2.652 2.448-.635.952-1.065 1.927-1.292 2.924-.227.997-.34 1.79-.34 2.38V222h-8.16v-32.64zm44.316 28.492h-.204c-.816 1.45-2.13 2.64-3.944 3.57-1.813.93-3.876 1.394-6.188 1.394-1.315 0-2.686-.17-4.114-.51-1.428-.34-2.743-.907-3.944-1.7-1.2-.793-2.2-1.836-2.992-3.128-.793-1.292-1.19-2.89-1.19-4.794 0-2.448.69-4.397 2.074-5.848 1.383-1.45 3.162-2.56 5.338-3.332 2.176-.77 4.59-1.28 7.242-1.53s5.247-.374 7.786-.374v-.816c0-2.04-.737-3.547-2.21-4.522-1.473-.975-3.23-1.462-5.27-1.462-1.723 0-3.377.363-4.964 1.088-1.587.725-2.9 1.61-3.944 2.652l-4.216-4.964c1.86-1.723 4-3.015 6.426-3.876 2.425-.86 4.885-1.292 7.378-1.292 2.9 0 5.293.408 7.174 1.224 1.88.816 3.366 1.88 4.454 3.196 1.088 1.315 1.847 2.788 2.278 4.42.43 1.632.646 3.264.646 4.896V222h-7.616v-4.148zm-.136-10.744h-1.836c-1.315 0-2.697.057-4.148.17-1.45.113-2.788.363-4.012.748-1.224.385-2.244.93-3.06 1.632-.816.703-1.224 1.666-1.224 2.89 0 .77.17 1.417.51 1.938.34.52.782.94 1.326 1.258.544.317 1.156.544 1.836.68.68.136 1.36.204 2.04.204 2.81 0 4.94-.748 6.392-2.244 1.45-1.496 2.176-3.536 2.176-6.12v-1.156z"/>
    <path fill="#EC3A3E" d="M81.96 260.72l-10.64-16.04h6.16l7.12 11.92 7.2-11.92h5.84L87 260.72V273h-5.04v-12.28zm10.81 2.6c0-1.52.273-2.9.82-4.14.547-1.24 1.287-2.3 2.22-3.18.933-.88 2.04-1.56 3.32-2.04 1.28-.48 2.64-.72 4.08-.72s2.8.24 4.08.72c1.28.48 2.387 1.16 3.32 2.04.933.88 1.673 1.94 2.22 3.18.547 1.24.82 2.62.82 4.14 0 1.52-.273 2.907-.82 4.16-.547 1.253-1.287 2.327-2.22 3.22-.933.893-2.04 1.593-3.32 2.1-1.28.507-2.64.76-4.08.76s-2.8-.253-4.08-.76c-1.28-.507-2.387-1.207-3.32-2.1-.933-.893-1.673-1.967-2.22-3.22-.547-1.253-.82-2.64-.82-4.16zm4.88 0c0 .747.113 1.493.34 2.24.227.747.567 1.413 1.02 2 .453.587 1.027 1.067 1.72 1.44.693.373 1.52.56 2.48.56s1.787-.187 2.48-.56c.693-.373 1.267-.853 1.72-1.44.453-.587.793-1.253 1.02-2 .227-.747.34-1.493.34-2.24 0-.747-.113-1.487-.34-2.22-.227-.733-.567-1.393-1.02-1.98-.453-.587-1.027-1.06-1.72-1.42-.693-.36-1.52-.54-2.48-.54s-1.787.18-2.48.54c-.693.36-1.267.833-1.72 1.42-.453.587-.793 1.247-1.02 1.98-.227.733-.34 1.473-.34 2.22zm36.01 9.68h-4.56v-3.08h-.08c-.427.96-1.167 1.807-2.22 2.54-1.053.733-2.3 1.1-3.74 1.1-1.253 0-2.327-.22-3.22-.66-.893-.44-1.627-1.02-2.2-1.74-.573-.72-.993-1.547-1.26-2.48s-.4-1.893-.4-2.88v-12h4.8v10.64c0 .56.04 1.147.12 1.76.08.613.253 1.167.52 1.66.267.493.633.9 1.1 1.22.467.32 1.087.48 1.86.48.747 0 1.407-.153 1.98-.46.573-.307 1.04-.7 1.4-1.18.36-.48.633-1.033.82-1.66.187-.627.28-1.26.28-1.9V253.8h4.8V273zm24.58-13.88c-.373-.533-.933-.98-1.68-1.34-.747-.36-1.507-.54-2.28-.54-.88 0-1.653.18-2.32.54-.667.36-1.22.833-1.66 1.42-.44.587-.767 1.247-.98 1.98-.213.733-.32 1.473-.32 2.22 0 .747.113 1.487.34 2.22.227.733.567 1.393 1.02 1.98.453.587 1.02 1.06 1.7 1.42.68.36 1.473.54 2.38.54.747 0 1.493-.147 2.24-.44.747-.293 1.347-.72 1.8-1.28l3 3.04c-.8.853-1.82 1.513-3.06 1.98-1.24.467-2.58.7-4.02.7-1.413 0-2.753-.227-4.02-.68-1.267-.453-2.373-1.12-3.32-2-.947-.88-1.693-1.947-2.24-3.2-.547-1.253-.82-2.68-.82-4.28 0-1.547.273-2.947.82-4.2.547-1.253 1.287-2.32 2.22-3.2.933-.88 2.02-1.56 3.26-2.04 1.24-.48 2.567-.72 3.98-.72 1.413 0 2.78.267 4.1.8 1.32.533 2.367 1.267 3.14 2.2l-3.28 2.88zm14.93-5.88c1.253 0 2.327.22 3.22.66.893.44 1.627 1.02 2.2 1.74.573.72.993 1.547 1.26 2.48s.4 1.893.4 2.88v12h-4.8v-10.56c0-.56-.04-1.14-.12-1.74-.08-.6-.247-1.147-.5-1.64-.253-.493-.613-.9-1.08-1.22-.467-.32-1.087-.48-1.86-.48-.773 0-1.44.147-2 .44-.56.293-1.027.687-1.4 1.18-.373.493-.653 1.047-.84 1.66-.187.613-.28 1.24-.28 1.88V273h-4.8v-30.24h4.8v13.72h.08c.187-.4.46-.793.82-1.18.36-.387.78-.733 1.26-1.04.48-.307 1.027-.553 1.64-.74.613-.187 1.28-.28 2-.28zm9.41 10.08c0-1.52.273-2.9.82-4.14.547-1.24 1.287-2.3 2.22-3.18.933-.88 2.04-1.56 3.32-2.04 1.28-.48 2.64-.72 4.08-.72s2.8.24 4.08.72c1.28.48 2.387 1.16 3.32 2.04.933.88 1.673 1.94 2.22 3.18.547 1.24.82 2.62.82 4.14 0 1.52-.273 2.907-.82 4.16-.547 1.253-1.287 2.327-2.22 3.22-.933.893-2.04 1.593-3.32 2.1-1.28.507-2.64.76-4.08.76s-2.8-.253-4.08-.76c-1.28-.507-2.387-1.207-3.32-2.1-.933-.893-1.673-1.967-2.22-3.22-.547-1.253-.82-2.64-.82-4.16zm4.88 0c0 .747.113 1.493.34 2.24.227.747.567 1.413 1.02 2 .453.587 1.027 1.067 1.72 1.44.693.373 1.52.56 2.48.56s1.787-.187 2.48-.56c.693-.373 1.267-.853 1.72-1.44.453-.587.793-1.253 1.02-2 .227-.747.34-1.493.34-2.24 0-.747-.113-1.487-.34-2.22-.227-.733-.567-1.393-1.02-1.98-.453-.587-1.027-1.06-1.72-1.42-.693-.36-1.52-.54-2.48-.54s-1.787.18-2.48.54c-.693.36-1.267.833-1.72 1.42-.453.587-.793 1.247-1.02 1.98-.227.733-.34 1.473-.34 2.22zm17.37 0c0-1.52.273-2.9.82-4.14.547-1.24 1.287-2.3 2.22-3.18.933-.88 2.04-1.56 3.32-2.04 1.28-.48 2.64-.72 4.08-.72s2.8.24 4.08.72c1.28.48 2.387 1.16 3.32 2.04.933.88 1.673 1.94 2.22 3.18.547 1.24.82 2.62.82 4.14 0 1.52-.273 2.907-.82 4.16-.547 1.253-1.287 2.327-2.22 3.22-.933.893-2.04 1.593-3.32 2.1-1.28.507-2.64.76-4.08.76s-2.8-.253-4.08-.76c-1.28-.507-2.387-1.207-3.32-2.1-.933-.893-1.673-1.967-2.22-3.22-.547-1.253-.82-2.64-.82-4.16zm4.88 0c0 .747.113 1.493.34 2.24.227.747.567 1.413 1.02 2 .453.587 1.027 1.067 1.72 1.44.693.373 1.52.56 2.48.56s1.787-.187 2.48-.56c.693-.373 1.267-.853 1.72-1.44.453-.587.793-1.253 1.02-2 .227-.747.34-1.493.34-2.24 0-.747-.113-1.487-.34-2.22-.227-.733-.567-1.393-1.02-1.98-.453-.587-1.027-1.06-1.72-1.42-.693-.36-1.52-.54-2.48-.54s-1.787.18-2.48.54c-.693.36-1.267.833-1.72 1.42-.453.587-.793 1.247-1.02 1.98-.227.733-.34 1.473-.34 2.22zm29.01-4.4c-.427-.56-1.013-1.047-1.76-1.46-.747-.413-1.56-.62-2.44-.62-.773 0-1.48.16-2.12.48-.64.32-.96.853-.96 1.6 0 .747.353 1.273 1.06 1.58.707.307 1.74.62 3.1.94.72.16 1.447.373 2.18.64.733.267 1.4.62 2 1.06.6.44 1.087.987 1.46 1.64.373.653.56 1.447.56 2.38 0 1.173-.22 2.167-.66 2.98-.44.813-1.027 1.473-1.76 1.98-.733.507-1.587.873-2.56 1.1-.973.227-1.98.34-3.02.34-1.493 0-2.947-.273-4.36-.82-1.413-.547-2.587-1.327-3.52-2.34l3.16-2.96c.533.693 1.227 1.267 2.08 1.72.853.453 1.8.68 2.84.68.347 0 .7-.04 1.06-.12.36-.08.693-.207 1-.38.307-.173.553-.407.74-.7.187-.293.28-.653.28-1.08 0-.8-.367-1.373-1.1-1.72-.733-.347-1.833-.693-3.3-1.04-.72-.16-1.42-.367-2.1-.62-.68-.253-1.287-.587-1.82-1-.533-.413-.96-.927-1.28-1.54-.32-.613-.48-1.373-.48-2.28 0-1.067.22-1.987.66-2.76.44-.773 1.02-1.407 1.74-1.9.72-.493 1.533-.86 2.44-1.1.907-.24 1.84-.36 2.8-.36 1.387 0 2.74.24 4.06.72 1.32.48 2.367 1.213 3.14 2.2l-3.12 2.76zm18.61 2.56c0-.613-.087-1.2-.26-1.76-.173-.56-.447-1.053-.82-1.48-.373-.427-.847-.767-1.42-1.02s-1.247-.38-2.02-.38c-1.44 0-2.66.433-3.66 1.3s-1.553 1.98-1.66 3.34h9.84zm4.8 2.16v.64c0 .213-.013.427-.04.64h-14.6c.053.693.233 1.327.54 1.9.307.573.713 1.067 1.22 1.48.507.413 1.08.74 1.72.98.64.24 1.307.36 2 .36 1.2 0 2.213-.22 3.04-.66.827-.44 1.507-1.047 2.04-1.82l3.2 2.56c-1.893 2.56-4.64 3.84-8.24 3.84-1.493 0-2.867-.233-4.12-.7-1.253-.467-2.34-1.127-3.26-1.98-.92-.853-1.64-1.9-2.16-3.14-.52-1.24-.78-2.647-.78-4.22 0-1.547.26-2.953.78-4.22s1.233-2.347 2.14-3.24c.907-.893 1.98-1.587 3.22-2.08 1.24-.493 2.58-.74 4.02-.74 1.333 0 2.567.22 3.7.66 1.133.44 2.113 1.093 2.94 1.96s1.473 1.947 1.94 3.24c.467 1.293.7 2.807.7 4.54zm18.66 1.56h-9.6v-4.08h9.6v4.08zm7.46-11.4h5.2l4 13.76h.08l4.12-13.76h5.12l4.16 13.76h.08l4.08-13.76h5l-6.64 19.2h-4.88l-4.36-13.44h-.08L299.81 273h-4.88l-6.68-19.2zm46.25 7.68c0-.613-.087-1.2-.26-1.76-.173-.56-.447-1.053-.82-1.48-.373-.427-.847-.767-1.42-1.02s-1.247-.38-2.02-.38c-1.44 0-2.66.433-3.66 1.3s-1.553 1.98-1.66 3.34h9.84zm4.8 2.16v.64c0 .213-.013.427-.04.64h-14.6c.053.693.233 1.327.54 1.9.307.573.713 1.067 1.22 1.48.507.413 1.08.74 1.72.98.64.24 1.307.36 2 .36 1.2 0 2.213-.22 3.04-.66.827-.44 1.507-1.047 2.04-1.82l3.2 2.56c-1.893 2.56-4.64 3.84-8.24 3.84-1.493 0-2.867-.233-4.12-.7-1.253-.467-2.34-1.127-3.26-1.98-.92-.853-1.64-1.9-2.16-3.14-.52-1.24-.78-2.647-.78-4.22 0-1.547.26-2.953.78-4.22s1.233-2.347 2.14-3.24c.907-.893 1.98-1.587 3.22-2.08 1.24-.493 2.58-.74 4.02-.74 1.333 0 2.567.22 3.7.66 1.133.44 2.113 1.093 2.94 1.96s1.473 1.947 1.94 3.24c.467 1.293.7 2.807.7 4.54zm7.62-9.84h5.2l4 13.76h.08l4.12-13.76h5.12l4.16 13.76h.08l4.08-13.76h5l-6.64 19.2h-4.88l-4.36-13.44h-.08L358.48 273h-4.88l-6.68-19.2zm31.61 9.52c0-1.52.273-2.9.82-4.14.547-1.24 1.287-2.3 2.22-3.18.933-.88 2.04-1.56 3.32-2.04 1.28-.48 2.64-.72 4.08-.72s2.8.24 4.08.72c1.28.48 2.387 1.16 3.32 2.04.933.88 1.673 1.94 2.22 3.18.547 1.24.82 2.62.82 4.14 0 1.52-.273 2.907-.82 4.16-.547 1.253-1.287 2.327-2.22 3.22-.933.893-2.04 1.593-3.32 2.1-1.28.507-2.64.76-4.08.76s-2.8-.253-4.08-.76c-1.28-.507-2.387-1.207-3.32-2.1-.933-.893-1.673-1.967-2.22-3.22-.547-1.253-.82-2.64-.82-4.16zm4.88 0c0 .747.113 1.493.34 2.24.227.747.567 1.413 1.02 2 .453.587 1.027 1.067 1.72 1.44.693.373 1.52.56 2.48.56s1.787-.187 2.48-.56c.693-.373 1.267-.853 1.72-1.44.453-.587.793-1.253 1.02-2 .227-.747.34-1.493.34-2.24 0-.747-.113-1.487-.34-2.22-.227-.733-.567-1.393-1.02-1.98-.453-.587-1.027-1.06-1.72-1.42-.693-.36-1.52-.54-2.48-.54s-1.787.18-2.48.54c-.693.36-1.267.833-1.72 1.42-.453.587-.793 1.247-1.02 1.98-.227.733-.34 1.473-.34 2.22zm18.49-9.52h4.6v3.2h.08c.533-1.12 1.28-2.027 2.24-2.72.96-.693 2.08-1.04 3.36-1.04.187 0 .387.007.6.02.213.013.4.047.56.1v4.4c-.32-.08-.593-.133-.82-.16-.227-.027-.447-.04-.66-.04-1.093 0-1.973.2-2.64.6-.667.4-1.187.88-1.56 1.44-.373.56-.627 1.133-.76 1.72s-.2 1.053-.2 1.4V273h-4.8v-19.2zm12.49-11.04h4.8v19.12h.12l7.28-8.08h6.16l-8.32 8.68 8.84 10.52h-6.36l-7.6-9.84h-.12V273h-4.8v-30.24zm25.81 21.36h-4.8v-19.44h4.8v19.44zm-5.6 6.08c0-.853.313-1.587.94-2.2.627-.613 1.38-.92 2.26-.92.853 0 1.6.293 2.24.88.64.587.96 1.307.96 2.16 0 .853-.313 1.587-.94 2.2-.627.613-1.38.92-2.26.92-.427 0-.833-.08-1.22-.24-.387-.16-.727-.373-1.02-.64-.293-.267-.527-.587-.7-.96-.173-.373-.26-.773-.26-1.2z"/>
    <path d="M0 0h533v294H0z"/>
  </g>
</svg>
